<svg width="252" height="33" viewBox="0 0 252 33" fill="none" xmlns="http://www.w3.org/2000/svg">
<path d="M13.8118 17.7656C12.8315 16.62 11.515 16.0472 9.91851 16.0472C9.35832 16.0472 8.79813 16.1774 8.26595 16.4117C7.73377 16.6721 7.45367 17.0887 7.45367 17.7135C7.45367 18.2082 7.73377 18.5727 8.29396 18.8071C8.85415 19.0414 9.55438 19.2497 10.3947 19.4319C11.235 19.6142 12.1593 19.7965 13.1396 20.0047C14.1199 20.213 15.0162 20.5515 15.8845 20.9941C16.7248 21.4368 17.4531 22.0356 17.9852 22.8167C18.5454 23.5717 18.8255 24.6132 18.8255 25.889C18.8255 27.1908 18.5174 28.2843 17.9012 29.1175C17.285 29.9767 16.5007 30.6537 15.5484 31.1484C14.5961 31.6691 13.5037 32.0336 12.3273 32.2419C11.1229 32.4502 9.94652 32.5543 8.77012 32.5543C7.25761 32.5543 5.71708 32.346 4.14855 31.9555C2.58002 31.5649 1.29159 30.8359 0.199219 29.8205L4.2886 25.6026C4.90481 26.3316 5.60505 26.8784 6.3613 27.2429C7.11756 27.6074 8.01386 27.8157 9.0222 27.8157C9.80647 27.8157 10.5067 27.7115 11.1229 27.5033C11.7391 27.295 12.0752 26.9044 12.0752 26.3576C12.0752 25.8369 11.7951 25.4464 11.235 25.16C10.6748 24.8996 9.97453 24.6653 9.13424 24.483C8.29396 24.3008 7.36964 24.1185 6.38931 23.9102C5.40898 23.7019 4.51268 23.3895 3.64438 22.9729C2.8041 22.5563 2.07585 21.9575 1.54367 21.2024C0.983484 20.4474 0.703389 19.4059 0.703389 18.1301C0.703389 16.9324 0.955474 15.917 1.48765 15.0318C2.01983 14.1726 2.69206 13.4696 3.56036 12.8968C4.40064 12.35 5.38097 11.9334 6.50135 11.6731C7.59372 11.4127 8.74211 11.2825 9.86249 11.2825C11.291 11.2825 12.7475 11.4648 14.204 11.8553C15.6604 12.2459 16.9209 12.9489 17.9292 13.9383L13.8118 17.7656Z" fill="#2863C5"/>
<path d="M21.8516 11.8035H28.3218V14.5633H28.4058C28.6018 14.1728 28.9099 13.7822 29.3021 13.3917C29.6942 13.0011 30.1424 12.6627 30.7026 12.3502C31.2347 12.0378 31.8509 11.8035 32.5512 11.5952C33.2514 11.4129 33.9797 11.3088 34.7919 11.3088C36.3044 11.3088 37.6769 11.5952 38.8533 12.194C40.0297 12.7668 40.926 13.7041 41.5142 14.9539C42.2985 13.6521 43.2228 12.7147 44.3432 12.168C45.4355 11.6212 46.808 11.3348 48.4325 11.3348C49.889 11.3348 51.1215 11.5691 52.1298 12.0118C53.1381 12.4804 53.9224 13.1053 54.5106 13.8864C55.0988 14.6675 55.5189 15.6048 55.771 16.6723C56.0231 17.7398 56.1632 18.8854 56.1632 20.1091V32.0859H49.4409V20.2914C49.4409 19.354 49.2168 18.5209 48.7967 17.8439C48.3765 17.167 47.5923 16.8285 46.4999 16.8285C45.7156 16.8285 45.0714 16.9587 44.5392 17.193C44.007 17.4273 43.5869 17.7658 43.2788 18.1824C42.9707 18.599 42.7466 19.0937 42.6066 19.6404C42.4665 20.1872 42.4105 20.786 42.4105 21.3849V32.1119H35.6882V21.3589C35.6882 20.9943 35.6602 20.5517 35.6322 20.031C35.6042 19.5103 35.4922 19.0156 35.3241 18.5209C35.1561 18.0522 34.848 17.6356 34.4558 17.3232C34.0637 16.9847 33.4755 16.8285 32.6912 16.8285C31.8229 16.8285 31.1227 16.9847 30.5905 17.2711C30.0583 17.5575 29.6382 17.9481 29.3581 18.4428C29.078 18.9375 28.8819 19.4842 28.7979 20.0831C28.7139 20.6819 28.6579 21.3328 28.6579 22.0098V32.1119H21.9356V11.8035H21.8516Z" fill="#2863C5"/>
<path d="M74.0572 29.5343H73.9732C73.2169 30.6279 72.2366 31.409 71.0042 31.8776C69.7718 32.3463 68.4553 32.5806 67.0828 32.5806C66.0745 32.5806 65.0942 32.4504 64.1419 32.1901C63.1895 31.9297 62.3773 31.5391 61.649 30.9924C60.9208 30.4716 60.3606 29.8207 59.9404 29.0396C59.5203 28.2585 59.3242 27.3473 59.3242 26.3319C59.3242 25.1602 59.5483 24.1708 60.0245 23.3637C60.5006 22.5566 61.1168 21.8796 61.9011 21.3589C62.6854 20.8382 63.6097 20.4216 64.618 20.1352C65.6263 19.8488 66.6907 19.6405 67.7831 19.4843C68.8755 19.3541 69.9678 19.2499 71.0602 19.2239C72.1526 19.1979 73.1609 19.1718 74.0852 19.1718C74.0852 18.0523 73.6651 17.167 72.7968 16.5161C71.9565 15.8652 70.9481 15.5267 69.7717 15.5267C68.6514 15.5267 67.643 15.735 66.7467 16.1776C65.8224 16.6202 65.0101 17.1931 64.3099 17.9481L60.7247 14.5373C61.9851 13.4438 63.4416 12.6367 65.1222 12.0899C66.8028 11.5431 68.5393 11.2828 70.3319 11.2828C72.2926 11.2828 73.9172 11.5171 75.2056 11.9597C76.466 12.4284 77.5024 13.1053 78.2586 13.9906C79.0149 14.8758 79.5471 15.9693 79.8552 17.2712C80.1633 18.573 80.3033 20.0571 80.3033 21.7494V32.0599H74.1132V29.5343H74.0572ZM72.3766 23.2075C71.8725 23.2075 71.2282 23.2335 70.472 23.2595C69.7157 23.3116 68.9875 23.4158 68.2872 23.6241C67.587 23.8063 66.9988 24.1188 66.4946 24.5093C65.9905 24.8998 65.7664 25.4466 65.7664 26.1236C65.7664 26.8786 66.1025 27.4254 66.8028 27.7899C67.503 28.1544 68.2032 28.3367 68.9595 28.3367C69.6037 28.3367 70.2479 28.2585 70.8641 28.0763C71.4803 27.9201 72.0125 27.6857 72.4887 27.3733C72.9648 27.0609 73.357 26.6703 73.6371 26.2017C73.9172 25.733 74.0572 25.1602 74.0572 24.5353V23.2075H72.3766Z" fill="#2863C5"/>
<path d="M84.2266 11.8033H90.9488V15.0578H91.0329C91.7611 13.8081 92.6014 12.8708 93.5817 12.2459C94.5621 11.621 95.8225 11.3086 97.307 11.3086C97.6991 11.3086 98.0913 11.3346 98.4834 11.3607C98.8755 11.3867 99.2396 11.4388 99.5478 11.5169V17.2189C99.0716 17.0887 98.5954 16.9845 98.1473 16.9064C97.6711 16.8283 97.195 16.8023 96.6908 16.8023C95.4023 16.8023 94.394 16.9585 93.6377 17.297C92.8815 17.6355 92.3213 18.1041 91.9012 18.7029C91.509 19.3018 91.2289 20.0048 91.1169 20.8379C91.0049 21.6711 90.9488 22.5824 90.9488 23.5978V32.0597H84.2266V11.8033Z" fill="#2863C5"/>
<path d="M118.908 16.8284H112.998V23.5718C112.998 24.1186 113.026 24.6393 113.082 25.0819C113.138 25.5506 113.278 25.9411 113.474 26.2796C113.67 26.6181 114.006 26.8784 114.426 27.0607C114.847 27.243 115.435 27.3211 116.163 27.3211C116.527 27.3211 117.003 27.295 117.564 27.2169C118.152 27.1388 118.6 26.9826 118.88 26.7483V31.9556C118.124 32.2159 117.367 32.3721 116.555 32.4502C115.743 32.5284 114.959 32.5804 114.174 32.5804C113.026 32.5804 111.99 32.4763 111.037 32.242C110.085 32.0076 109.245 31.6691 108.516 31.1745C107.788 30.6798 107.228 30.0549 106.836 29.2738C106.444 28.4927 106.22 27.5554 106.22 26.4358V16.8023H101.906V11.8033H106.248V5.81494H112.97V11.8294H118.88V16.8284H118.908Z" fill="#2863C5"/>
<path d="M136.41 18.3648C136.074 17.9222 135.626 17.5577 135.009 17.2713C134.421 16.9849 133.777 16.8287 133.077 16.8287C131.368 16.8287 130.052 17.2973 129.099 18.2346C128.147 19.1719 127.699 20.4217 127.699 21.9578C127.699 23.494 128.175 24.7177 129.099 25.6811C130.052 26.6184 131.368 27.087 133.077 27.087C133.833 27.087 134.477 26.9308 135.009 26.6184C135.541 26.3059 136.018 25.9414 136.41 25.5248L140.863 29.8729C139.827 30.8623 138.595 31.5653 137.166 31.9819C135.738 32.3724 134.393 32.5807 133.105 32.5807C131.424 32.5807 129.856 32.3203 128.371 31.8257C126.887 31.331 125.598 30.6019 124.506 29.6907C123.413 28.7534 122.545 27.6338 121.929 26.332C121.313 25.0301 120.977 23.5721 120.977 21.9578C120.977 20.3436 121.285 18.8855 121.929 17.5837C122.545 16.2819 123.413 15.1623 124.506 14.225C125.598 13.2877 126.887 12.5847 128.371 12.09C129.856 11.5953 131.424 11.335 133.105 11.335C134.393 11.335 135.738 11.5433 137.166 11.9338C138.595 12.3243 139.827 13.0273 140.863 14.0428L136.41 18.3648Z" fill="#2863C5"/>
<path d="M143.273 11.8033H149.996V15.0579H150.08C150.808 13.8082 151.648 12.8708 152.629 12.246C153.609 11.6211 154.869 11.3087 156.354 11.3087C156.746 11.3087 157.138 11.3347 157.53 11.3607C157.922 11.3868 158.287 11.4388 158.595 11.5169V17.2189C158.118 17.0887 157.642 16.9846 157.194 16.9065C156.718 16.8284 156.242 16.8023 155.738 16.8023C154.449 16.8023 153.441 16.9586 152.685 17.297C151.928 17.6355 151.368 18.1042 150.948 18.703C150.556 19.3018 150.276 20.0048 150.164 20.838C150.052 21.6712 149.996 22.5824 149.996 23.5979V32.0597H143.273V11.8033Z" fill="#2863C5"/>
<path d="M181.117 28.5706C180.052 29.8464 178.68 30.8358 177.027 31.5388C175.375 32.2418 173.666 32.5802 171.902 32.5802C170.221 32.5802 168.652 32.3199 167.168 31.8252C165.683 31.3305 164.395 30.6015 163.303 29.6902C162.21 28.7529 161.342 27.6333 160.726 26.3315C160.11 25.0297 159.773 23.5716 159.773 21.9573C159.773 20.3431 160.082 18.885 160.726 17.5832C161.342 16.2814 162.21 15.1618 163.303 14.2245C164.395 13.2872 165.683 12.5842 167.168 12.0895C168.652 11.5948 170.221 11.3345 171.902 11.3345C173.47 11.3345 174.871 11.5948 176.131 12.0895C177.391 12.5842 178.484 13.3132 179.352 14.2245C180.22 15.1618 180.921 16.2814 181.397 17.5832C181.873 18.885 182.125 20.3431 182.125 21.9573V23.9101H166.524C166.804 25.1078 167.364 26.0451 168.26 26.7741C169.157 27.4771 170.277 27.8416 171.593 27.8416C172.714 27.8416 173.638 27.6073 174.394 27.1646C175.151 26.696 175.823 26.1232 176.383 25.3942L181.117 28.5706ZM175.431 19.6661C175.459 18.5986 175.095 17.7134 174.31 16.9583C173.526 16.2033 172.518 15.8388 171.313 15.8388C170.557 15.8388 169.913 15.9429 169.353 16.1773C168.792 16.4116 168.288 16.6719 167.896 17.0365C167.504 17.3749 167.168 17.7915 166.944 18.2341C166.72 18.7028 166.58 19.1714 166.552 19.6661H175.431Z" fill="#2863C5"/>
<path d="M208.708 32.0863H202.518V29.4306H202.434C202.154 29.7951 201.817 30.1596 201.369 30.5241C200.921 30.8886 200.417 31.2271 199.857 31.5395C199.269 31.852 198.624 32.0863 197.924 32.2946C197.224 32.4769 196.496 32.581 195.739 32.581C194.115 32.581 192.658 32.3206 191.342 31.7999C190.025 31.2792 188.905 30.5762 187.953 29.6389C187 28.7016 186.272 27.608 185.768 26.3323C185.264 25.0565 185.012 23.6505 185.012 22.1143C185.012 20.7084 185.236 19.3545 185.712 18.0527C186.188 16.7508 186.832 15.6052 187.673 14.6158C188.513 13.6265 189.577 12.8193 190.782 12.2205C192.014 11.6217 193.387 11.3352 194.955 11.3352C196.356 11.3352 197.672 11.5435 198.876 11.9341C200.081 12.3246 201.089 13.0276 201.873 13.991H201.957V0.556152H208.68V32.0863H208.708ZM202.518 21.9581C202.518 20.422 202.041 19.1983 201.117 18.2349C200.165 17.2976 198.848 16.8289 197.14 16.8289C195.431 16.8289 194.115 17.2976 193.162 18.2349C192.21 19.1722 191.762 20.422 191.762 21.9581C191.762 23.4943 192.238 24.718 193.162 25.6813C194.115 26.6187 195.431 27.0873 197.14 27.0873C198.848 27.0873 200.165 26.6187 201.117 25.6813C202.041 24.718 202.518 23.4682 202.518 21.9581Z" fill="#2863C5"/>
<path d="M213.156 5.4244C213.156 4.43502 213.548 3.57581 214.305 2.84679C215.061 2.14381 215.985 1.7793 217.05 1.7793C218.114 1.7793 219.038 2.14381 219.823 2.84679C220.579 3.54978 220.971 4.40898 220.971 5.4244C220.971 6.43983 220.579 7.27299 219.823 7.97598C219.066 8.67896 218.142 9.04347 217.05 9.04347C215.985 9.04347 215.061 8.67896 214.305 7.97598C213.52 7.29903 213.156 6.43983 213.156 5.4244ZM213.688 11.8033H220.411V32.0597H213.688V11.8033Z" fill="#2863C5"/>
<path d="M240.547 16.8284H234.637V23.5718C234.637 24.1186 234.665 24.6393 234.721 25.0819C234.777 25.5506 234.917 25.9411 235.113 26.2796C235.31 26.6181 235.646 26.8784 236.066 27.0607C236.486 27.243 237.074 27.3211 237.802 27.3211C238.166 27.3211 238.643 27.295 239.203 27.2169C239.791 27.1388 240.239 26.9826 240.519 26.7483V31.9556C239.763 32.2159 239.007 32.3721 238.194 32.4502C237.382 32.5284 236.598 32.5804 235.814 32.5804C234.665 32.5804 233.629 32.4763 232.677 32.242C231.724 32.0076 230.884 31.6691 230.156 31.1745C229.428 30.6798 228.867 30.0549 228.475 29.2738C228.083 28.4927 227.859 27.5554 227.859 26.4358V16.8023H223.602V11.8033H227.915V5.81494H234.637V11.8294H240.547V16.8284Z" fill="#2863C5"/>
<path d="M241.281 5.29415C241.281 4.64324 241.421 4.01837 241.701 3.44556C241.981 2.87276 242.346 2.35203 242.794 1.93545C243.27 1.49283 243.802 1.15436 244.418 0.920027C245.035 0.659662 245.707 0.52948 246.407 0.52948C247.107 0.52948 247.779 0.659662 248.396 0.920027C249.012 1.18039 249.572 1.51887 250.02 1.93545C250.496 2.37807 250.861 2.87276 251.113 3.44556C251.393 4.01837 251.533 4.64324 251.533 5.29415C251.533 5.94506 251.393 6.56994 251.113 7.14274C250.832 7.71554 250.468 8.23627 250.02 8.65286C249.544 9.09548 249.012 9.43395 248.396 9.66828C247.779 9.90261 247.107 10.0588 246.407 10.0588C245.707 10.0588 245.035 9.92864 244.418 9.66828C243.802 9.40791 243.242 9.06944 242.794 8.65286C242.318 8.21024 241.953 7.71554 241.701 7.14274C241.421 6.56994 241.281 5.9711 241.281 5.29415ZM242.71 5.29415C242.71 5.78885 242.794 6.2575 242.99 6.70012C243.186 7.14274 243.438 7.53329 243.802 7.84573C244.138 8.15816 244.53 8.41853 244.979 8.62682C245.427 8.83511 245.903 8.91322 246.435 8.91322C246.939 8.91322 247.443 8.80908 247.891 8.62682C248.34 8.44456 248.732 8.1842 249.068 7.84573C249.404 7.53329 249.684 7.14274 249.88 6.70012C250.076 6.2575 250.16 5.78885 250.16 5.29415C250.16 4.79946 250.076 4.3308 249.88 3.88818C249.684 3.44556 249.432 3.05502 249.068 2.74258C248.732 2.43014 248.34 2.16978 247.891 1.96149C247.443 1.77923 246.967 1.67508 246.435 1.67508C245.931 1.67508 245.427 1.77923 244.979 1.96149C244.53 2.14374 244.138 2.40411 243.802 2.74258C243.466 3.05502 243.186 3.44556 242.99 3.88818C242.794 4.3308 242.71 4.79946 242.71 5.29415ZM244.446 2.74258H246.351C246.491 2.74258 246.687 2.74258 246.967 2.76862C247.219 2.79465 247.471 2.84673 247.723 2.95087C247.976 3.05502 248.2 3.21124 248.368 3.41953C248.564 3.62782 248.648 3.94026 248.648 4.35684C248.648 4.61721 248.62 4.8255 248.536 4.98172C248.452 5.13793 248.368 5.29415 248.256 5.3983C248.144 5.50245 248.004 5.58055 247.863 5.63263C247.723 5.6847 247.555 5.73677 247.415 5.73677L248.788 7.71554H247.331L246.099 5.78885H245.875V7.71554H244.474V2.74258H244.446ZM245.847 4.8255H246.407C246.491 4.8255 246.575 4.8255 246.687 4.8255C246.799 4.8255 246.883 4.79946 246.967 4.77342C247.051 4.74739 247.107 4.69531 247.163 4.61721C247.219 4.5391 247.247 4.43495 247.247 4.30477C247.247 4.17459 247.219 4.07044 247.163 3.99233C247.107 3.91422 247.051 3.86215 246.967 3.83611C246.883 3.81007 246.799 3.78404 246.687 3.78404C246.575 3.78404 246.491 3.78404 246.407 3.78404H245.847V4.8255Z" fill="#2863C5"/>
</svg>
