<svg width="20" height="23" viewBox="0 0 20 23" fill="none" xmlns="http://www.w3.org/2000/svg">
<path d="M19.5 8.70312C17.7422 8.74219 16.1016 8.19531 14.6953 7.17969V14.1719C14.6953 19.0547 9.38281 22.1016 5.16406 19.6797C0.945312 17.2188 0.945312 11.125 5.16406 8.66406C6.375 7.96094 7.82031 7.6875 9.22656 7.88281V11.3984C7.07812 10.6953 5.00781 12.6094 5.47656 14.7969C5.98438 16.9844 8.64062 17.8438 10.3203 16.3203C10.9062 15.7734 11.2578 14.9922 11.2578 14.1719V0.5H14.6953C14.6953 0.8125 14.6953 1.08594 14.7734 1.39844C15.0078 2.6875 15.75 3.82031 16.8828 4.52344C17.625 5.03125 18.5625 5.30469 19.5 5.30469V8.70312Z" fill="#717D8A"/>
</svg>
